<!-- google-logo.svg -->
<svg xmlns="http://www.w3.org/2000/svg" width="20" height="20" viewBox="0 0 48 48">
  <path fill="#fbc02d" d="M43.6 20.5H42V20H24v8h11.3c-1.7 4.6-6 8-11.3 8-6.6 0-12-5.4-12-12s5.4-12 12-12c3 0 5.8 1.1 7.9 2.9l5.7-5.7C33.2 6.3 28.8 4.5 24 4.5 12.7 4.5 3.5 13.7 3.5 25S12.7 45.5 24 45.5 44.5 36.3 44.5 25c0-1.6-.2-3.1-.6-4.5z"/>
  <path fill="#e53935" d="M6.3 14.3l6.6 4.8C14.7 15 19 12 24 12c3 0 5.8 1.1 7.9 2.9l5.7-5.7C33.2 6.3 28.8 4.5 24 4.5c-7.3 0-13.6 4.2-17 10.4z"/>
  <path fill="#4caf50" d="M24 45.5c4.6 0 8.9-1.6 12.2-4.4l-5.6-4.6C28.4 38.3 26.3 39 24 39c-5.2 0-9.5-3.3-11.2-7.8l-6.6 5.1C10.3 41.3 16.7 45.5 24 45.5z"/>
  <path fill="#1565c0" d="M43.6 20.5H42V20H24v8h11.3c-0.7 2-1.9 3.7-3.5 5l0.1 0.1 5.6 4.6c-0.4 0.3 6.5-5.2 6.5-14.7 0-1.6-.2-3.1-.6-4.5z"/>
</svg>
